Coordinates
version=1
nRows=54
nColumns=12
inDegrees=yes

Units are S.I. units (second, meters, Newtons, ...)
Angles are in degrees

endheader
time	SC_y	SC_z	SC_x	AC_y	AC_z	AC_x	GH_y	GH_z	GH_yy	EL_x	PS_y
       0.0              -31.45          6.127          31.53          52.74          8.934         -12.91         -149.8          69.93          132.9          86.94          119.9
   0.04558              -31.45          6.129          31.53          52.74           8.93         -12.91         -149.8          69.93          132.9          86.93          119.9
   0.09117              -31.45          6.131          31.54          52.74          8.926         -12.91         -149.8          69.93          132.9          86.92          119.9
    0.1368              -31.45          6.133          31.54          52.74          8.921         -12.91         -149.8          69.93          132.9          86.91          119.9
    0.1823              -31.45          6.136          31.55          52.74          8.917         -12.91         -149.8          69.93          132.9           86.9          119.9
    0.2279              -31.45          6.139          31.55          52.74          8.912         -12.91         -149.8          69.93          132.9          86.89          119.9
    0.2735              -31.46          6.142          31.56          52.74          8.906         -12.91         -149.8          69.93          132.9          86.87          119.9
    0.3191              -31.46          6.145          31.57          52.74          8.901         -12.91         -149.8          69.93          132.8          86.86          120.0
    0.3647              -31.46          6.148          31.57          52.73          8.895         -12.91         -149.8          69.93          132.8          86.84          120.0
    0.4103              -31.46          6.152          31.58          52.73          8.888         -12.91         -149.8          69.93          132.8          86.83          120.0
    0.4558              -31.46          6.156          31.59          52.73          8.881          -12.9         -149.8          69.93          132.8          86.81          120.0
    0.5014              -31.46           6.16           31.6          52.73          8.874          -12.9         -149.8          69.93          132.8          86.79          120.0
     0.547              -31.46          6.164          31.61          52.73          8.866          -12.9         -149.8          69.93          132.8          86.77          120.0
    0.5926              -31.46          6.169          31.62          52.73          8.857          -12.9         -149.8          69.93          132.8          86.75          120.0
    0.6382              -31.46          6.174          31.63          52.72          8.847          -12.9         -149.8          69.93          132.8          86.72          120.0
    0.6838              -31.46           6.18          31.65          52.72          8.837          -12.9         -149.8          69.92          132.8           86.7          120.0
    0.7293              -31.46          6.186          31.66          52.72          8.826          -12.9         -149.8          69.92          132.8          86.67          120.0
    0.7749              -31.47          6.193          31.68          52.71          8.814          -12.9         -149.8          69.92          132.8          86.64          120.0
    0.8205              -31.47            6.2          31.69          52.71          8.801         -12.89         -149.9          69.92          132.8          86.61          120.0
    0.8661              -31.47          6.208          31.71          52.71          8.786         -12.89         -149.9          69.92          132.7          86.57          120.1
    0.9117              -31.47          6.217          31.73           52.7           8.77         -12.89         -149.9          69.92          132.7          86.53          120.1
    0.9573              -31.47          6.227          31.75           52.7          8.753         -12.89         -149.9          69.92          132.7          86.49          120.1
     1.003              -31.48          6.237          31.78          52.69          8.733         -12.88         -149.9          69.92          132.7          86.44          120.1
     1.048              -31.48          6.249           31.8          52.69          8.712         -12.88         -149.9          69.92          132.7          86.38          120.1
     1.094              -31.48          6.262          31.83          52.68          8.688         -12.88         -149.9          69.91          132.7          86.32          120.1
      1.14              -31.48          6.277          31.86          52.68          8.661         -12.87         -149.9          69.91          132.6          86.26          120.2
     1.185              -31.49          6.294           31.9          52.67          8.631         -12.87         -149.9          69.91          132.6          86.18          120.2
     1.231              -31.49          6.312          31.94          52.66          8.598         -12.87         -150.0          69.91          132.6           86.1          120.2
     1.276               -31.5          6.333          31.99          52.65           8.56         -12.86         -150.0          69.91          132.5           86.0          120.2
     1.322               -31.5          6.357          32.04          52.64          8.517         -12.86         -150.0           69.9          132.5          85.89          120.3
     1.368              -31.51          6.384          32.11          52.63          8.468         -12.85         -150.0           69.9          132.4          85.77          120.3
     1.413              -31.51          6.415          32.18          52.61          8.411         -12.84         -150.0          69.89          132.4          85.63          120.4
     1.459              -31.52          6.451          32.26          52.59          8.346         -12.83         -150.1          69.89          132.3          85.47          120.4
     1.504              -31.53          6.493          32.35          52.58           8.27         -12.82         -150.1          69.89          132.3          85.28          120.5
      1.55              -31.54          6.542          32.46          52.55          8.182         -12.81         -150.2          69.88          132.2          85.06          120.6
     1.595              -31.55            6.6          32.59          52.53          8.077          -12.8         -150.2          69.87          132.1          84.79          120.7
     1.641              -31.56          6.668          32.74          52.49          7.953         -12.78         -150.3          69.86          132.0          84.48          120.8
     1.687              -31.58           6.75          32.93          52.46          7.805         -12.76         -150.3          69.85          131.8          84.11          120.9
     1.732               -31.6           6.85          33.15          52.41          7.625         -12.73         -150.4          69.84          131.7          83.66          121.0
     1.778              -31.63          6.971          33.43          52.35          7.405          -12.7         -150.5          69.82          131.5          83.11          121.2
     1.823              -31.66          7.121          33.76          52.29          7.134         -12.67         -150.7          69.81          131.2          82.43          121.5
     1.869               -31.7          7.308          34.18           52.2          6.795         -12.62         -150.8          69.78          130.9          81.58          121.7
     1.915              -31.75          7.543          34.71          52.09          6.369         -12.56         -151.0          69.75          130.5          80.51          122.1
      1.96              -31.81          7.842          35.38          51.95          5.827         -12.49         -151.3          69.71          130.0          79.15          122.6
     2.006              -31.89          8.225          36.25          51.78          5.134         -12.39         -151.6          69.67          129.4          77.41          123.2
     2.051              -31.99          8.716          37.35          51.55          4.244         -12.27         -152.0           69.6          128.5          75.18          123.9
     2.097              -32.12          9.344          38.76          51.26          3.108         -12.12         -152.6          69.52          127.5          72.33          124.9
     2.142              -32.28          10.13          40.54          50.89          1.679         -11.92         -153.3          69.42          126.2          68.75          126.1
     2.188              -32.48           11.1           42.7          50.45       -0.06285         -11.69         -154.1           69.3          124.6          64.38          127.6
     2.234              -32.71          12.21          45.21          49.93         -2.081         -11.41         -155.1          69.16          122.7          59.32          129.3
     2.279              -32.96          13.42          47.92          49.38         -4.267         -11.11         -156.1          69.01          120.7          53.84          131.2
     2.325              -33.21          14.62          50.64          48.82         -6.453         -10.81         -157.2          68.86          118.7          48.36          133.0
      2.37              -33.44          15.74          53.14           48.3         -8.472         -10.54         -158.2          68.72          116.8           43.3          134.8
     2.416              -33.64           16.7           55.3          47.86         -10.21          -10.3         -159.0          68.59          115.2          38.93          136.2
